<mxfile host="app.diagrams.net" agent="Mozilla/5.0 (X11; Linux x86_64; rv:134.0) Gecko/20100101 Firefox/134.0" version="26.0.3">
  <diagram id="-NTbiAI7OXHFERFkKQ-l" name="Page-1">
    <mxGraphModel dx="880" dy="482" grid="1" gridSize="10" guides="1" tooltips="1" connect="1" arrows="1" fold="1" page="1" pageScale="1" pageWidth="827" pageHeight="1169" math="0" shadow="0">
      <root>
        <mxCell id="0" />
        <mxCell id="1" parent="0" />
        <mxCell id="RFO-IRlkSK7CdZD_XVRj-1" value="" style="rounded=1;whiteSpace=wrap;html=1;strokeColor=#008080;" parent="1" vertex="1">
          <mxGeometry x="160" y="100" width="510" height="260" as="geometry" />
        </mxCell>
        <mxCell id="RFO-IRlkSK7CdZD_XVRj-2" value="&lt;font style=&quot;font-size: 14px&quot;&gt;&lt;b&gt;End User&lt;/b&gt;&lt;/font&gt;" style="outlineConnect=0;dashed=0;verticalLabelPosition=bottom;verticalAlign=top;align=center;html=1;shape=mxgraph.aws3.user;fillColor=#D2D3D3;gradientColor=none;fontSize=20;" parent="1" vertex="1">
          <mxGeometry x="80" y="194.5" width="45" height="63" as="geometry" />
        </mxCell>
        <mxCell id="RFO-IRlkSK7CdZD_XVRj-3" value="&lt;div&gt;&lt;font style=&quot;font-size: 14px;&quot;&gt;Basic&lt;/font&gt;&lt;/div&gt;&lt;div&gt;&lt;font style=&quot;font-size: 14px;&quot;&gt;Capabilities&lt;br&gt;&lt;/font&gt;&lt;/div&gt;" style="shadow=0;dashed=0;html=1;strokeColor=none;fillColor=#4495D1;labelPosition=center;verticalLabelPosition=bottom;verticalAlign=top;align=center;outlineConnect=0;shape=mxgraph.veeam.windows_linux_server;fontSize=20;" parent="1" vertex="1">
          <mxGeometry x="210" y="190" width="76" height="72" as="geometry" />
        </mxCell>
        <mxCell id="RFO-IRlkSK7CdZD_XVRj-4" value="&lt;div&gt;&lt;font style=&quot;font-size: 14px;&quot;&gt;Python&lt;/font&gt;&lt;/div&gt;&lt;div&gt;&lt;font style=&quot;font-size: 14px;&quot;&gt;Programming&lt;br&gt;&lt;/font&gt;&lt;/div&gt;" style="shape=image;html=1;verticalAlign=top;verticalLabelPosition=bottom;labelBackgroundColor=#ffffff;imageAspect=0;aspect=fixed;image=https://cdn4.iconfinder.com/data/icons/logos-and-brands/512/267_Python_logo-128.png;fontSize=20;" parent="1" vertex="1">
          <mxGeometry x="364" y="180.5" width="99" height="99" as="geometry" />
        </mxCell>
        <mxCell id="RFO-IRlkSK7CdZD_XVRj-6" value="" style="shape=flexArrow;endArrow=classic;html=1;rounded=0;fontSize=20;strokeWidth=2;fillColor=#009E9E;" parent="1" edge="1">
          <mxGeometry width="50" height="50" relative="1" as="geometry">
            <mxPoint x="150" y="225.5" as="sourcePoint" />
            <mxPoint x="200" y="226" as="targetPoint" />
          </mxGeometry>
        </mxCell>
        <mxCell id="RFO-IRlkSK7CdZD_XVRj-7" value="" style="shape=flexArrow;endArrow=classic;html=1;rounded=0;fontSize=20;strokeWidth=2;fillColor=#009E9E;" parent="1" edge="1">
          <mxGeometry width="50" height="50" relative="1" as="geometry">
            <mxPoint x="300" y="225.5" as="sourcePoint" />
            <mxPoint x="360" y="226" as="targetPoint" />
          </mxGeometry>
        </mxCell>
        <mxCell id="RFO-IRlkSK7CdZD_XVRj-8" value="" style="shape=flexArrow;endArrow=classic;html=1;rounded=0;fontSize=20;strokeWidth=2;fillColor=#009E9E;" parent="1" edge="1">
          <mxGeometry width="50" height="50" relative="1" as="geometry">
            <mxPoint x="650" y="226" as="sourcePoint" />
            <mxPoint x="704" y="225.5" as="targetPoint" />
          </mxGeometry>
        </mxCell>
        <mxCell id="8s-rB7mAuBpaN1bvlLKw-10" value="" style="shape=flexArrow;endArrow=classic;html=1;rounded=0;fontSize=20;strokeWidth=2;fillColor=#009E9E;" parent="1" edge="1">
          <mxGeometry width="50" height="50" relative="1" as="geometry">
            <mxPoint x="463" y="225.5" as="sourcePoint" />
            <mxPoint x="523" y="226" as="targetPoint" />
          </mxGeometry>
        </mxCell>
        <mxCell id="v9t2wjgadOA3M0w6m_lU-4" value="" style="shape=image;verticalLabelPosition=bottom;labelBackgroundColor=#ffffff;verticalAlign=top;aspect=fixed;imageAspect=0;image=https://upload.wikimedia.org/wikipedia/commons/thumb/8/88/SpaCy_logo.svg/1200px-SpaCy_logo.svg.png;" parent="1" vertex="1">
          <mxGeometry x="540" y="249.73000000000002" width="100" height="35.77" as="geometry" />
        </mxCell>
        <mxCell id="v9t2wjgadOA3M0w6m_lU-5" value="" style="shape=image;verticalLabelPosition=bottom;labelBackgroundColor=#ffffff;verticalAlign=top;aspect=fixed;imageAspect=0;image=https://textacy.readthedocs.io/en/latest/_static/textacy_logo.png;" parent="1" vertex="1">
          <mxGeometry x="530" y="180.5" width="120" height="77.54" as="geometry" />
        </mxCell>
        <mxCell id="v9t2wjgadOA3M0w6m_lU-7" value="&lt;font style=&quot;font-size: 14px&quot;&gt;&lt;b&gt;Linguistics&lt;/b&gt;&lt;/font&gt;" style="shape=image;html=1;verticalAlign=top;verticalLabelPosition=bottom;labelBackgroundColor=#ffffff;imageAspect=0;aspect=fixed;image=https://cdn2.iconfinder.com/data/icons/new-year-resolutions/64/resolutions-06-128.png" parent="1" vertex="1">
          <mxGeometry x="600" y="420" width="80" height="80" as="geometry" />
        </mxCell>
        <mxCell id="v9t2wjgadOA3M0w6m_lU-8" value="" style="shape=flexArrow;endArrow=classic;html=1;rounded=0;fontSize=20;strokeWidth=2;fillColor=#009E9E;" parent="1" edge="1">
          <mxGeometry width="50" height="50" relative="1" as="geometry">
            <mxPoint x="589.5" y="380" as="sourcePoint" />
            <mxPoint x="589.5" y="290" as="targetPoint" />
          </mxGeometry>
        </mxCell>
        <mxCell id="v9t2wjgadOA3M0w6m_lU-9" value="&lt;b&gt;AI - NLP&lt;br&gt;Developer&lt;/b&gt;" style="shape=image;html=1;verticalAlign=top;verticalLabelPosition=bottom;labelBackgroundColor=#ffffff;imageAspect=0;aspect=fixed;image=https://cdn4.iconfinder.com/data/icons/free-large-boss-icon-set/128/Admin.png;fontSize=14;" parent="1" vertex="1">
          <mxGeometry x="699" y="178" width="104" height="104" as="geometry" />
        </mxCell>
        <mxCell id="01RcBBP5KZOMF23McItB-1" value="&lt;b&gt;&lt;font style=&quot;font-size: 14px&quot;&gt;Math, Probability, &lt;br&gt;Statistics&lt;/font&gt;&lt;/b&gt;" style="shape=image;html=1;verticalAlign=top;verticalLabelPosition=bottom;labelBackgroundColor=#ffffff;imageAspect=0;aspect=fixed;image=https://cdn4.iconfinder.com/data/icons/general-office/91/General_Office_64-128.png" parent="1" vertex="1">
          <mxGeometry x="500" y="440" width="60" height="60" as="geometry" />
        </mxCell>
        <mxCell id="01RcBBP5KZOMF23McItB-2" value="&lt;font style=&quot;font-size: 18px&quot;&gt;&lt;b&gt;Foundation&lt;/b&gt;&lt;/font&gt;" style="text;html=1;strokeColor=none;fillColor=none;align=center;verticalAlign=middle;whiteSpace=wrap;rounded=0;fontSize=14;labelBackgroundColor=#009E9E;labelBorderColor=default;fontColor=#FFFFFF;" parent="1" vertex="1">
          <mxGeometry x="550" y="370" width="80" height="50" as="geometry" />
        </mxCell>
        <mxCell id="01RcBBP5KZOMF23McItB-5" value="" style="endArrow=none;html=1;rounded=1;fontSize=18;fontColor=#FFFFFF;strokeWidth=5;fillColor=#d5e8d4;strokeColor=#82b366;" parent="1" edge="1">
          <mxGeometry width="50" height="50" relative="1" as="geometry">
            <mxPoint x="490" y="419" as="sourcePoint" />
            <mxPoint x="680" y="419" as="targetPoint" />
          </mxGeometry>
        </mxCell>
      </root>
    </mxGraphModel>
  </diagram>
</mxfile>
